<?xml version="1.0" encoding="UTF-8"?>
<svg id="Capa_1" data-name="Capa 1" xmlns="http://www.w3.org/2000/svg" viewBox="0 0 578.85 323.79">
  <defs>
    <style>
      .cls-1, .cls-2 {
        fill: #fff;
      }

      .cls-3 {
        fill: #0a62eb;
      }

      .cls-2 {
        opacity: .56;
      }

      .cls-4 {
        fill: none;
        stroke: #0a62eb;
        stroke-miterlimit: 10;
        stroke-width: 5px;
      }

      .cls-5 {
        fill: #93baf6;
      }
    </style>
  </defs>
  <rect class="cls-3" width="323.79" height="323.79" rx="17.68" ry="17.68"/>
  <g>
    <path class="cls-2" d="m273.32,97.37v26.51c0-7.44-6.04-13.45-13.45-13.45s-13.45,5.99-13.45,13.41c-.05,28.29-.14,92.23.02,101.48.14,8.84-12.1,19.19-18.51,23.98-2.34,1.75-5.17,2.71-8.1,2.71h-111.49c-1.87,0-3.72-.4-5.43-1.15-21.6-9.27-19.77-30.11-19.77-30.11V73.88c0-5.71-3.58-10.6-8.63-12.54,4.61-1.92,9.69-2.99,15-2.99h144.76c21.57,0,39.05,17.48,39.05,39.03Z"/>
    <path class="cls-1" d="m273.32,123.88v118.28c0,21.55-17.48,39.03-39.05,39.03H89.51c-21.55,0-39.03-17.48-39.03-39.03V97.37c0-16.24,9.92-30.14,24.03-36.03,5.05,1.94,8.63,6.83,8.63,12.54v146.87s-1.83,20.85,19.77,30.11c1.71.75,3.56,1.15,5.43,1.15h111.49c2.92,0,5.76-.96,8.1-2.71,6.41-4.8,18.65-15.14,18.51-23.98-.16-9.24-.07-73.19-.02-101.48,0-7.42,6.01-13.41,13.45-13.41s13.45,6.01,13.45,13.45Z"/>
  </g>
  <rect class="cls-5" x="83.14" y="193.11" width="163.09" height="58.94" rx="7.15" ry="7.15"/>
  <path class="cls-4" d="m95.29,37.94s43.41,56.55,43.41,119.88-43.41,140.19-43.41,140.19"/>
  <path class="cls-4" d="m230.18,37.94s-43.41,56.55-43.41,119.88c0,63.32,43.41,140.19,43.41,140.19"/>
  <path class="cls-4" d="m283.89,199.97s-56.55-35.64-119.88-35.64S23.83,199.97,23.83,199.97"/>
  <path class="cls-1" d="m83.12,73.18v-14.27s-3.78.42-8.61,2.43l1.4,3,6.65,9.18.57-.34Z"/>
  <polygon class="cls-1" points="246.41 127.35 246.41 110.32 273.32 110.32 273.32 126.55 246.41 127.35"/>
</svg>