<?xml version="1.0" encoding="UTF-8"?>
<svg id="Capa_1" data-name="Capa 1" xmlns="http://www.w3.org/2000/svg" viewBox="0 0 746.01 138.38">
  <defs>
    <style>
      .cls-1, .cls-2 {
        fill: #fff;
      }

      .cls-3 {
        fill: #0a62eb;
      }

      .cls-2 {
        opacity: .56;
      }

      .cls-4 {
        stroke: #0a62eb;
        stroke-miterlimit: 10;
        stroke-width: 5px;
      }

      .cls-4, .cls-5 {
        fill: none;
      }

      .cls-6 {
        fill: #93baf6;
      }

      .cls-7 {
        fill: #0068ef;
      }
    </style>
  </defs>
  <rect class="cls-3" width="138.38" height="138.38" rx="17.68" ry="17.68"/>
  <g>
    <path class="cls-2" d="m116.81,41.62v11.33c0-3.18-2.58-5.75-5.75-5.75s-5.75,2.56-5.75,5.73c-.02,12.09-.06,39.42.01,43.37.06,3.78-5.17,8.2-7.91,10.25-1,.75-2.21,1.16-3.46,1.16h-47.65c-.8,0-1.59-.17-2.32-.49-9.23-3.96-8.45-12.87-8.45-12.87V31.58c0-2.44-1.53-4.53-3.69-5.36,1.97-.82,4.14-1.28,6.41-1.28h61.87c9.22,0,16.69,7.47,16.69,16.68Z"/>
    <path class="cls-1" d="m116.81,52.95v50.55c0,9.21-7.47,16.68-16.69,16.68h-61.87c-9.21,0-16.68-7.47-16.68-16.68v-61.88c0-6.94,4.24-12.88,10.27-15.4,2.16.83,3.69,2.92,3.69,5.36v62.77s-.78,8.91,8.45,12.87c.73.32,1.52.49,2.32.49h47.65c1.25,0,2.46-.41,3.46-1.16,2.74-2.05,7.97-6.47,7.91-10.25-.07-3.95-.03-31.28-.01-43.37,0-3.17,2.57-5.73,5.75-5.73s5.75,2.57,5.75,5.75Z"/>
  </g>
  <rect class="cls-6" x="35.53" y="82.53" width="69.7" height="25.19" rx="7.15" ry="7.15"/>
  <path class="cls-4" d="m40.72,16.21s18.55,24.17,18.55,51.23-18.55,59.91-18.55,59.91"/>
  <path class="cls-4" d="m98.38,16.21s-18.55,24.17-18.55,51.23c0,27.06,18.55,59.91,18.55,59.91"/>
  <path class="cls-4" d="m121.33,85.46s-24.17-15.23-51.23-15.23-59.91,15.23-59.91,15.23"/>
  <path class="cls-1" d="m35.53,31.28v-6.1s-1.62.18-3.68,1.04l.6,1.28,2.84,3.93.24-.15Z"/>
  <polygon class="cls-1" points="105.31 54.43 105.31 47.15 116.81 47.15 116.81 54.09 105.31 54.43"/>
  <rect class="cls-7" x="158.81" y="65.21" width="25.28" height="13.15"/>
  <path class="cls-3" d="m317.88,101.29h-11.44V28.56h54.82c3.82,0,7.6.9,10.93,2.59,8.95,4.56,13.88,12.19,13.88,21.47,0,8.79-4.46,15.66-12.55,19.34-3.47,1.58-7.39,2.37-11.65,2.37h-43.98v26.95Zm0-38.39h43.98c2.62,0,4.95-.45,6.92-1.35,3.98-1.81,5.83-4.64,5.83-8.92,0-4.9-2.57-8.7-7.63-11.28-1.73-.88-3.71-1.35-5.73-1.35h-43.37v22.89Z"/>
  <path class="cls-3" d="m293.51,81.05c0,8.09-4.08,14.38-11.52,17.74-3.13,1.45-6.71,2.17-10.61,2.17h-47.57v-11.44h47.57c2.25,0,4.23-.38,5.87-1.14,3.32-1.49,4.81-3.78,4.81-7.32,0-1.53,0-6.18-6.41-9.42-1.45-.76-3.13-1.14-4.81-1.14h-27.16c-3.89,0-7.44-.72-10.61-2.17-7.44-3.36-11.52-9.65-11.52-17.74,0-8.51,4.5-15.49,12.67-19.65,3.05-1.53,6.49-2.37,9.99-2.37h36.47v11.44h-36.47c-1.72,0-3.36.38-4.81,1.14-6.41,3.24-6.41,7.9-6.41,9.42,0,3.55,1.49,5.84,4.81,7.32,1.64.76,3.62,1.14,5.87,1.14h27.16c3.51,0,6.94.84,9.99,2.37,8.16,4.16,12.67,11.14,12.67,19.65Z"/>
  <path class="cls-3" d="m746.01,81.05c0,8.09-4.08,14.38-11.52,17.74-3.13,1.45-6.71,2.17-10.61,2.17h-47.57v-11.44h47.57c2.25,0,4.23-.38,5.87-1.14,3.32-1.49,4.81-3.78,4.81-7.32,0-1.53,0-6.18-6.41-9.42-1.45-.76-3.13-1.14-4.81-1.14h-27.16c-3.89,0-7.44-.72-10.61-2.17-7.44-3.36-11.52-9.65-11.52-17.74,0-8.51,4.5-15.49,12.67-19.65,3.05-1.53,6.49-2.37,9.99-2.37h36.47v11.44h-36.47c-1.72,0-3.36.38-4.81,1.14-6.41,3.24-6.41,7.9-6.41,9.42,0,3.55,1.49,5.84,4.81,7.32,1.64.76,3.62,1.14,5.87,1.14h27.16c3.51,0,6.94.84,9.99,2.37,8.16,4.16,12.67,11.14,12.67,19.65Z"/>
  <path class="cls-3" d="m456.5,100.96h-34.09c-12.55,0-22.77-10.21-22.77-22.77v-26.87c0-12.55,10.22-22.77,22.77-22.77h34.09c12.55,0,22.77,10.21,22.77,22.77v26.87c0,12.55-10.22,22.77-22.77,22.77Zm-34.09-60.96c-6.24,0-11.33,5.08-11.33,11.32v26.87c0,6.24,5.08,11.32,11.33,11.32h34.09c6.24,0,11.33-5.08,11.33-11.32v-26.87c0-6.24-5.08-11.32-11.33-11.32h-34.09Z"/>
  <polygon class="cls-3" points="663.39 28.55 663.39 39.88 626.99 39.88 626.99 101.71 615.55 101.71 615.55 39.88 579.16 39.88 579.16 28.55 663.39 28.55"/>
  <g>
    <path class="cls-5" d="m555.09,61.55c4.01-1.83,5.84-4.65,5.84-8.93,0-4.92-2.56-8.7-7.63-11.29-1.72-.88-3.7-1.34-5.72-1.34h-43.37v22.89h43.99c2.59,0,4.96-.46,6.9-1.34Z"/>
    <polygon class="cls-5" points="504.2 74.33 504.2 101.3 557.12 101.3 542.04 74.33 504.2 74.33"/>
    <path class="cls-3" d="m554.74,73.61c1.79-.34,3.47-.92,5.07-1.64,8.09-3.66,12.55-10.53,12.55-19.34,0-9.31-4.92-16.9-13.89-21.48-3.32-1.68-7.1-2.59-10.91-2.59h-54.82v72.75h11.44v-26.97h37.84l15.07,26.97h13.31l-1.79-2.82-13.89-24.87Zm-50.55-10.72v-22.89h43.37c2.02,0,4.01.46,5.72,1.34,5.07,2.59,7.63,6.37,7.63,11.29,0,4.27-1.83,7.1-5.84,8.93-1.95.88-4.31,1.34-6.9,1.34h-43.99Z"/>
    <polygon class="cls-1" points="557.67 102.3 558.67 104.09 557.67 102.3 557.67 102.3"/>
  </g>
</svg>