<svg width="75" height="13" viewBox="0 0 75 13" fill="none" xmlns="http://www.w3.org/2000/svg">
<path d="M1.43602 1.545V12H0.0710157V1.545H1.43602ZM7.76742 3.63C8.76742 3.63 9.57742 3.935 10.1974 4.545C10.8174 5.145 11.1274 6.015 11.1274 7.155V12H9.77742V7.35C9.77742 6.53 9.57242 5.905 9.16242 5.475C8.75242 5.035 8.19242 4.815 7.48242 4.815C6.76242 4.815 6.18742 5.04 5.75742 5.49C5.33742 5.94 5.12742 6.595 5.12742 7.455V12H3.76242V3.78H5.12742V4.95C5.39742 4.53 5.76242 4.205 6.22242 3.975C6.69242 3.745 7.20742 3.63 7.76742 3.63ZM16.2671 12.135C15.6371 12.135 15.0721 12.03 14.5721 11.82C14.0721 11.6 13.6771 11.3 13.3871 10.92C13.0971 10.53 12.9371 10.085 12.9071 9.585H14.3171C14.3571 9.995 14.5471 10.33 14.8871 10.59C15.2371 10.85 15.6921 10.98 16.2521 10.98C16.7721 10.98 17.1821 10.865 17.4821 10.635C17.7821 10.405 17.9321 10.115 17.9321 9.765C17.9321 9.405 17.7721 9.14 17.4521 8.97C17.1321 8.79 16.6371 8.615 15.9671 8.445C15.3571 8.285 14.8571 8.125 14.4671 7.965C14.0871 7.795 13.7571 7.55 13.4771 7.23C13.2071 6.9 13.0721 6.47 13.0721 5.94C13.0721 5.52 13.1971 5.135 13.4471 4.785C13.6971 4.435 14.0521 4.16 14.5121 3.96C14.9721 3.75 15.4971 3.645 16.0871 3.645C16.9971 3.645 17.7321 3.875 18.2921 4.335C18.8521 4.795 19.1521 5.425 19.1921 6.225H17.8271C17.7971 5.795 17.6221 5.45 17.3021 5.19C16.9921 4.93 16.5721 4.8 16.0421 4.8C15.5521 4.8 15.1621 4.905 14.8721 5.115C14.5821 5.325 14.4371 5.6 14.4371 5.94C14.4371 6.21 14.5221 6.435 14.6921 6.615C14.8721 6.785 15.0921 6.925 15.3521 7.035C15.6221 7.135 15.9921 7.25 16.4621 7.38C17.0521 7.54 17.5321 7.7 17.9021 7.86C18.2721 8.01 18.5871 8.24 18.8471 8.55C19.1171 8.86 19.2571 9.265 19.2671 9.765C19.2671 10.215 19.1421 10.62 18.8921 10.98C18.6421 11.34 18.2871 11.625 17.8271 11.835C17.3771 12.035 16.8571 12.135 16.2671 12.135ZM20.6841 7.875C20.6841 7.025 20.8541 6.285 21.1941 5.655C21.5341 5.015 22.0041 4.52 22.6041 4.17C23.2141 3.82 23.9091 3.645 24.6891 3.645C25.6991 3.645 26.5291 3.89 27.1791 4.38C27.8391 4.87 28.2741 5.55 28.4841 6.42H27.0141C26.8741 5.92 26.5991 5.525 26.1891 5.235C25.7891 4.945 25.2891 4.8 24.6891 4.8C23.9091 4.8 23.2791 5.07 22.7991 5.61C22.3191 6.14 22.0791 6.895 22.0791 7.875C22.0791 8.865 22.3191 9.63 22.7991 10.17C23.2791 10.71 23.9091 10.98 24.6891 10.98C25.2891 10.98 25.7891 10.84 26.1891 10.56C26.5891 10.28 26.8641 9.88 27.0141 9.36H28.4841C28.2641 10.2 27.8241 10.875 27.1641 11.385C26.5041 11.885 25.6791 12.135 24.6891 12.135C23.9091 12.135 23.2141 11.96 22.6041 11.61C22.0041 11.26 21.5341 10.765 21.1941 10.125C20.8541 9.485 20.6841 8.735 20.6841 7.875ZM31.6704 5.115C31.9104 4.645 32.2504 4.28 32.6904 4.02C33.1404 3.76 33.6854 3.63 34.3254 3.63V5.04H33.9654C32.4354 5.04 31.6704 5.87 31.6704 7.53V12H30.3054V3.78H31.6704V5.115ZM36.6061 2.445C36.3461 2.445 36.1261 2.355 35.9461 2.175C35.7661 1.995 35.6761 1.775 35.6761 1.515C35.6761 1.255 35.7661 1.035 35.9461 0.855C36.1261 0.674999 36.3461 0.584999 36.6061 0.584999C36.8561 0.584999 37.0661 0.674999 37.2361 0.855C37.4161 1.035 37.5061 1.255 37.5061 1.515C37.5061 1.775 37.4161 1.995 37.2361 2.175C37.0661 2.355 36.8561 2.445 36.6061 2.445ZM37.2661 3.78V12H35.9011V3.78H37.2661ZM40.9575 5.31C41.2375 4.82 41.6475 4.42 42.1875 4.11C42.7275 3.8 43.3425 3.645 44.0325 3.645C44.7725 3.645 45.4375 3.82 46.0275 4.17C46.6175 4.52 47.0825 5.015 47.4225 5.655C47.7625 6.285 47.9325 7.02 47.9325 7.86C47.9325 8.69 47.7625 9.43 47.4225 10.08C47.0825 10.73 46.6125 11.235 46.0125 11.595C45.4225 11.955 44.7625 12.135 44.0325 12.135C43.3225 12.135 42.6975 11.98 42.1575 11.67C41.6275 11.36 41.2275 10.965 40.9575 10.485V12H39.5925V0.9H40.9575V5.31ZM46.5375 7.86C46.5375 7.24 46.4125 6.7 46.1625 6.24C45.9125 5.78 45.5725 5.43 45.1425 5.19C44.7225 4.95 44.2575 4.83 43.7475 4.83C43.2475 4.83 42.7825 4.955 42.3525 5.205C41.9325 5.445 41.5925 5.8 41.3325 6.27C41.0825 6.73 40.9575 7.265 40.9575 7.875C40.9575 8.495 41.0825 9.04 41.3325 9.51C41.5925 9.97 41.9325 10.325 42.3525 10.575C42.7825 10.815 43.2475 10.935 43.7475 10.935C44.2575 10.935 44.7225 10.815 45.1425 10.575C45.5725 10.325 45.9125 9.97 46.1625 9.51C46.4125 9.04 46.5375 8.49 46.5375 7.86ZM50.4342 2.445C50.1742 2.445 49.9542 2.355 49.7742 2.175C49.5942 1.995 49.5042 1.775 49.5042 1.515C49.5042 1.255 49.5942 1.035 49.7742 0.855C49.9542 0.674999 50.1742 0.584999 50.4342 0.584999C50.6842 0.584999 50.8942 0.674999 51.0642 0.855C51.2442 1.035 51.3342 1.255 51.3342 1.515C51.3342 1.775 51.2442 1.995 51.0642 2.175C50.8942 2.355 50.6842 2.445 50.4342 2.445ZM51.0942 3.78V12H49.7292V3.78H51.0942ZM54.7856 5.115C55.0256 4.645 55.3656 4.28 55.8056 4.02C56.2556 3.76 56.8006 3.63 57.4406 3.63V5.04H57.0806C55.5506 5.04 54.7856 5.87 54.7856 7.53V12H53.4206V3.78H54.7856V5.115ZM61.9263 12.135C61.2963 12.135 60.7313 12.03 60.2313 11.82C59.7313 11.6 59.3363 11.3 59.0463 10.92C58.7563 10.53 58.5963 10.085 58.5663 9.585H59.9763C60.0163 9.995 60.2063 10.33 60.5463 10.59C60.8963 10.85 61.3513 10.98 61.9113 10.98C62.4313 10.98 62.8413 10.865 63.1413 10.635C63.4413 10.405 63.5913 10.115 63.5913 9.765C63.5913 9.405 63.4313 9.14 63.1113 8.97C62.7913 8.79 62.2963 8.615 61.6263 8.445C61.0163 8.285 60.5163 8.125 60.1263 7.965C59.7463 7.795 59.4163 7.55 59.1363 7.23C58.8663 6.9 58.7313 6.47 58.7313 5.94C58.7313 5.52 58.8563 5.135 59.1063 4.785C59.3563 4.435 59.7113 4.16 60.1713 3.96C60.6313 3.75 61.1563 3.645 61.7463 3.645C62.6563 3.645 63.3913 3.875 63.9513 4.335C64.5113 4.795 64.8113 5.425 64.8513 6.225H63.4863C63.4563 5.795 63.2813 5.45 62.9613 5.19C62.6513 4.93 62.2313 4.8 61.7013 4.8C61.2113 4.8 60.8213 4.905 60.5313 5.115C60.2413 5.325 60.0963 5.6 60.0963 5.94C60.0963 6.21 60.1813 6.435 60.3513 6.615C60.5313 6.785 60.7513 6.925 61.0113 7.035C61.2813 7.135 61.6513 7.25 62.1213 7.38C62.7113 7.54 63.1913 7.7 63.5613 7.86C63.9313 8.01 64.2463 8.24 64.5063 8.55C64.7763 8.86 64.9163 9.265 64.9263 9.765C64.9263 10.215 64.8013 10.62 64.5513 10.98C64.3013 11.34 63.9463 11.625 63.4863 11.835C63.0363 12.035 62.5163 12.135 61.9263 12.135ZM74.3532 7.575C74.3532 7.835 74.3382 8.11 74.3082 8.4H67.7382C67.7882 9.21 68.0632 9.845 68.5632 10.305C69.0732 10.755 69.6882 10.98 70.4082 10.98C70.9982 10.98 71.4882 10.845 71.8782 10.575C72.2782 10.295 72.5582 9.925 72.7182 9.465H74.1882C73.9682 10.255 73.5282 10.9 72.8682 11.4C72.2082 11.89 71.3882 12.135 70.4082 12.135C69.6282 12.135 68.9282 11.96 68.3082 11.61C67.6982 11.26 67.2182 10.765 66.8682 10.125C66.5182 9.475 66.3432 8.725 66.3432 7.875C66.3432 7.025 66.5132 6.28 66.8532 5.64C67.1932 5 67.6682 4.51 68.2782 4.17C68.8982 3.82 69.6082 3.645 70.4082 3.645C71.1882 3.645 71.8782 3.815 72.4782 4.155C73.0782 4.495 73.5382 4.965 73.8582 5.565C74.1882 6.155 74.3532 6.825 74.3532 7.575ZM72.9432 7.29C72.9432 6.77 72.8282 6.325 72.5982 5.955C72.3682 5.575 72.0532 5.29 71.6532 5.1C71.2632 4.9 70.8282 4.8 70.3482 4.8C69.6582 4.8 69.0682 5.02 68.5782 5.46C68.0982 5.9 67.8232 6.51 67.7532 7.29H72.9432Z" fill="white"/>
</svg>
