<svg width="56" height="56" viewBox="0 0 56 56" fill="none" xmlns="http://www.w3.org/2000/svg">
<g clip-path="url(#clip0_274_3389)">
<path d="M36.1667 32.6667H34.3233L33.67 32.0367C35.9567 29.3767 37.3333 25.9233 37.3333 22.1667C37.3333 13.79 30.5433 7 22.1667 7C13.79 7 7 13.79 7 22.1667C7 30.5433 13.79 37.3333 22.1667 37.3333C25.9233 37.3333 29.3767 35.9567 32.0367 33.67L32.6667 34.3233V36.1667L44.3333 47.81L47.81 44.3333L36.1667 32.6667ZM22.1667 32.6667C16.3567 32.6667 11.6667 27.9767 11.6667 22.1667C11.6667 16.3567 16.3567 11.6667 22.1667 11.6667C27.9767 11.6667 32.6667 16.3567 32.6667 22.1667C32.6667 27.9767 27.9767 32.6667 22.1667 32.6667Z" fill="black"/>
</g>
<defs>
<clipPath id="clip0_274_3389">
<rect width="56" height="56" fill="white"/>
</clipPath>
</defs>
</svg>
