<svg width="72" height="72" viewBox="0 0 72 72" fill="none" xmlns="http://www.w3.org/2000/svg">
<g clip-path="url(#clip0_839_15259)">
<path d="M51.27 33H65.85C65.37 28.17 63.72 23.67 61.23 19.8C56.04 22.29 52.26 27.15 51.27 33Z" fill="#0065F3"/>
<path d="M20.7299 33C19.7399 27.15 15.9599 22.29 10.7699 19.8C8.2799 23.67 6.6299 28.17 6.1499 33H20.7299Z" fill="#0065F3"/>
<path d="M45.21 33C46.17 25.23 50.85 18.63 57.39 15C52.59 10.11 46.17 6.87002 39 6.15002V33H45.21Z" fill="#0065F3"/>
<path d="M26.7899 33H32.9999V6.15002C25.8299 6.87002 19.3799 10.11 14.6099 15C21.1499 18.63 25.8299 25.23 26.7899 33Z" fill="#0065F3"/>
<path d="M45.21 39H39V65.85C46.17 65.13 52.62 61.89 57.39 57C50.85 53.37 46.17 46.77 45.21 39Z" fill="#0065F3"/>
<path d="M10.7699 52.2C15.9299 49.71 19.7399 44.82 20.7299 39H6.1499C6.6299 43.83 8.2799 48.33 10.7699 52.2Z" fill="#0065F3"/>
<path d="M51.27 39C52.26 44.85 56.04 49.71 61.23 52.2C63.72 48.33 65.37 43.83 65.85 39H51.27Z" fill="#0065F3"/>
<path d="M26.7899 39C25.8299 46.77 21.1499 53.37 14.6099 57C19.4099 61.89 25.8299 65.13 32.9999 65.85V39H26.7899Z" fill="#0065F3"/>
</g>
<defs>
<clipPath id="clip0_839_15259">
<rect width="72" height="72" fill="white"/>
</clipPath>
</defs>
</svg>
