<svg width="45" height="45" viewBox="0 0 45 45" fill="none" xmlns="http://www.w3.org/2000/svg">
<g clip-path="url(#clip0_22_785)">
<path d="M32.0437 20.625H41.1562C40.8562 17.6063 39.825 14.7937 38.2687 12.375C35.025 13.9312 32.6625 16.9688 32.0437 20.625Z" fill="black"/>
<path d="M12.9563 20.625C12.3375 16.9688 9.975 13.9312 6.73125 12.375C5.175 14.7937 4.14375 17.6063 3.84375 20.625H12.9563Z" fill="black"/>
<path d="M28.2562 20.625C28.8562 15.7688 31.7812 11.6438 35.8687 9.375C32.8687 6.31875 28.8563 4.29375 24.375 3.84375V20.625H28.2562Z" fill="black"/>
<path d="M16.7438 20.625H20.6251V3.84375C16.1438 4.29375 12.1126 6.31875 9.13135 9.375C13.2188 11.6438 16.1438 15.7688 16.7438 20.625Z" fill="black"/>
<path d="M28.2562 24.375H24.375V41.1563C28.8563 40.7063 32.8875 38.6812 35.8687 35.625C31.7812 33.3562 28.8562 29.2312 28.2562 24.375Z" fill="black"/>
<path d="M6.73125 32.625C9.95625 31.0687 12.3375 28.0125 12.9563 24.375H3.84375C4.14375 27.3937 5.175 30.2062 6.73125 32.625Z" fill="black"/>
<path d="M32.0437 24.375C32.6625 28.0312 35.025 31.0687 38.2687 32.625C39.825 30.2062 40.8562 27.3937 41.1562 24.375H32.0437Z" fill="black"/>
<path d="M16.7438 24.375C16.1438 29.2312 13.2188 33.3562 9.13135 35.625C12.1313 38.6812 16.1438 40.7063 20.6251 41.1563V24.375H16.7438Z" fill="black"/>
</g>
<defs>
<clipPath id="clip0_22_785">
<rect width="45" height="45" fill="white"/>
</clipPath>
</defs>
</svg>
